<?xml version="1.0" encoding="utf-8"?>
<!-- Generator: Adobe Illustrator 26.4.1, SVG Export Plug-In . SVG Version: 6.00 Build 0)  -->
<svg version="1.1" id="Layer_1" xmlns="http://www.w3.org/2000/svg" xmlns:xlink="http://www.w3.org/1999/xlink" x="0px" y="0px"
	 viewBox="0 0 143.2 143.1" enable-background="new 0 0 143.2 143.1" xml:space="preserve">
<rect x="49.9" fill-rule="evenodd" clip-rule="evenodd" fill="#36E07E" width="43.3" height="43.3"/>
<path fill-rule="evenodd" clip-rule="evenodd" fill="#36E07E" d="M43.3,43.3H0V13C0,5.8,5.8,0,13,0h30.3V43.3z"/>
<path fill-rule="evenodd" clip-rule="evenodd" fill="#36E07E" d="M143.1,43.3H99.8V0h30.3c7.2,0,13,5.8,13,13V43.3z"/>
<polygon fill-rule="evenodd" clip-rule="evenodd" fill="#002920" points="143.1,43.3 99.9,43.3 99.9,10.8 "/>
<rect x="49.9" y="49.9" fill-rule="evenodd" clip-rule="evenodd" fill="#36E07E" width="43.3" height="43.3"/>
<polygon fill-rule="evenodd" clip-rule="evenodd" fill="#002920" points="93.2,93.2 49.9,93.2 73.9,49.9 93.2,49.9 "/>
<rect y="49.9" fill-rule="evenodd" clip-rule="evenodd" fill="#36E07E" width="43.3" height="43.3"/>
<rect x="99.9" y="49.9" fill-rule="evenodd" clip-rule="evenodd" fill="#002920" width="43.3" height="43.3"/>
<rect x="49.9" y="99.8" fill-rule="evenodd" clip-rule="evenodd" fill="#002920" width="43.3" height="43.3"/>
<path fill-rule="evenodd" clip-rule="evenodd" fill="#36E07E" d="M43.3,143.1H13c-7.2,0-13-5.8-13-13V99.8h43.3V143.1z"/>
<path fill-rule="evenodd" clip-rule="evenodd" fill="#002920" d="M0,121.5v8.6c0,7.2,5.8,13,13,13h30.3V99.8L0,121.5z"/>
<path fill-rule="evenodd" clip-rule="evenodd" fill="#002920" d="M130.1,143.1H99.8V99.8h43.3v30.3
	C143.1,137.3,137.3,143.1,130.1,143.1z"/>
<polygon fill-rule="evenodd" clip-rule="evenodd" fill="#002920" points="93.2,43.3 75.5,43.3 93.2,10.8 "/>
</svg>
