<?xml version="1.0" encoding="utf-8"?>
<!-- Generator: Adobe Illustrator 26.4.1, SVG Export Plug-In . SVG Version: 6.00 Build 0)  -->
<svg version="1.1" id="Layer_1" xmlns="http://www.w3.org/2000/svg" xmlns:xlink="http://www.w3.org/1999/xlink" x="0px" y="0px"
	 viewBox="0 0 610 143.1" enable-background="new 0 0 610 143.1" xml:space="preserve">
<g>
	<path fill="#002920" d="M191.6,46.1v22.7h37.8v11.1h-37.8v28.4h-12.3V34.7h52.1V46L191.6,46.1L191.6,46.1z"/>
	<path fill="#002920" d="M227,124l3.9-8.9c2.1,1.1,4.1,1.6,5.9,1.6c4.7,0,6.4-2.5,6.4-9.5V56.4H255v50.8c0,13.7-5.5,20.1-16.8,20.1
		C234.1,127.3,230.5,126.2,227,124z M241.5,41.5c0-4.3,3.2-7.4,7.6-7.4s7.6,3,7.6,7.4c0,4.1-3.2,7.1-7.6,7.1S241.5,45.6,241.5,41.5z
		"/>
	<path fill="#002920" d="M319.5,86.7H278c0.9,7.6,7.3,12.4,16.4,12.4c5.9,0,11.8-2.1,14.9-5.4l7.1,6.9c-5.1,5.6-13.4,9-22.4,9
		c-17.1,0-28.2-10.8-28.2-27.4c0-16.1,10.8-27,26.9-27C311.1,55.3,321.2,67.3,319.5,86.7z M278.1,77.6h30.2
		c-0.8-7.4-6.5-12.1-15.1-12.1C284.9,65.5,279.5,69.9,278.1,77.6z"/>
	<path fill="#002920" d="M330.2,34.7H342v73.6h-11.8V34.7z"/>
	<path fill="#002920" d="M356.4,34.7h11.8v73.6h-11.8V34.7z"/>
	<path fill="#002920" d="M416.9,106.5c-4,1.8-7.4,2.5-11.7,2.5c-10.7,0-17-6.2-17-18.6V66.3h-9.8v-10h9.8V42.7l11.7-1.3v14.8h14.9
		v10h-14.9v24.1c0,5.3,2.4,8.2,7.3,8.2c2.1,0,4.5-0.6,6.5-1.6L416.9,106.5z"/>
	<path fill="#002920" d="M422.2,82.3c0-15.6,10.8-27.1,27.7-27.1c16.8,0,27.6,11.6,27.6,27.1c0,15.6-10.8,27.1-27.6,27.1
		C433.1,109.4,422.2,97.9,422.2,82.3z M465.8,82.3c0-9-6.2-16.4-15.9-16.4c-9.8,0-16,7.4-16,16.4s6.2,16.4,16,16.4
		C459.6,98.7,465.8,91.4,465.8,82.3z"/>
	<path fill="#002920" d="M543.8,82.3c0,16-10.5,27.1-25.7,27.1c-7.3,0-13.7-2.5-17.8-6.8v23h-11.8V56.4H499l0.1,6.9
		c4-5,10.9-8.1,18.9-8.1C533.3,55.2,543.8,66.4,543.8,82.3z M532,82.3c0-9.7-6.5-16.4-15.9-16.4c-9.2,0-15.9,6.7-15.9,16.4
		c0,9.7,6.6,16.4,15.9,16.4C525.5,98.7,532,92,532,82.3z"/>
	<path fill="#002920" d="M610,82.3c0,16-10.5,27.1-25.7,27.1c-7.3,0-13.7-2.5-17.8-6.8v23h-11.8V56.4h10.5l0.1,6.9
		c4-5,10.9-8.1,18.9-8.1C599.5,55.2,610,66.4,610,82.3z M598.2,82.3c0-9.7-6.5-16.4-15.9-16.4c-9.2,0-15.9,6.7-15.9,16.4
		c0,9.7,6.6,16.4,15.9,16.4C591.7,98.7,598.2,92,598.2,82.3z"/>
</g>
<rect x="49.9" fill-rule="evenodd" clip-rule="evenodd" fill="#36E07E" width="43.3" height="43.3"/>
<path fill-rule="evenodd" clip-rule="evenodd" fill="#36E07E" d="M43.3,43.2H0V13C0,5.8,5.8,0,13,0h30.3V43.2z"/>
<path fill-rule="evenodd" clip-rule="evenodd" fill="#36E07E" d="M143.1,43.2H99.8V0h30.3c7.2,0,13,5.8,13,13V43.2z"/>
<polygon fill-rule="evenodd" clip-rule="evenodd" fill="#002920" points="143.1,43.2 99.8,43.2 99.8,10.8 "/>
<rect x="49.9" y="49.9" fill-rule="evenodd" clip-rule="evenodd" fill="#36E07E" width="43.3" height="43.3"/>
<polygon fill-rule="evenodd" clip-rule="evenodd" fill="#002920" points="93.2,93.1 49.9,93.1 73.9,49.9 93.2,49.9 "/>
<rect y="49.9" fill-rule="evenodd" clip-rule="evenodd" fill="#36E07E" width="43.3" height="43.3"/>
<rect x="99.8" y="49.9" fill-rule="evenodd" clip-rule="evenodd" fill="#002920" width="43.3" height="43.3"/>
<rect x="49.9" y="99.8" fill-rule="evenodd" clip-rule="evenodd" fill="#002920" width="43.3" height="43.3"/>
<path fill-rule="evenodd" clip-rule="evenodd" fill="#36E07E" d="M43.3,143H13c-7.2,0-13-5.8-13-13V99.7h43.3V143z"/>
<path fill-rule="evenodd" clip-rule="evenodd" fill="#002920" d="M0,121.4v8.6c0,7.2,5.8,13,13,13h30.3V99.7L0,121.4z"/>
<path fill-rule="evenodd" clip-rule="evenodd" fill="#002920" d="M130.1,143H99.8V99.7h43.3V130C143.1,137.2,137.3,143,130.1,143z"
	/>
<polygon fill-rule="evenodd" clip-rule="evenodd" fill="#002920" points="93.2,43.2 75.4,43.2 93.2,10.8 "/>
</svg>
